<svg xmlns="http://www.w3.org/2000/svg" version="1.1" xmlns:xlink="http://www.w3.org/1999/xlink" xmlns:svgjs="http://svgjs.dev/svgjs" width="1500" height="1500" viewBox="0 0 1500 1500"><rect width="1500" height="1500" fill="#ffffff"></rect><g transform="matrix(0.6666666666666666,0,0,0.6666666666666666,249.39393939393938,564.5074062680808)"><svg viewBox="0 0 396 146" data-background-color="#ffffff" preserveAspectRatio="xMidYMid meet" height="553" width="1500" xmlns="http://www.w3.org/2000/svg" xmlns:xlink="http://www.w3.org/1999/xlink"><g id="tight-bounds" transform="matrix(1,0,0,1,0.2400000000000091,0.459092273581021)"><svg viewBox="0 0 395.52 145.08181545283796" height="145.08181545283796" width="395.52"><g><svg viewBox="0 0 664.5155278783727 243.7528296450123" height="145.08181545283796" width="395.52"><g transform="matrix(1,0,0,1,268.9955278783727,69.85044039399007)"><svg viewBox="0 0 395.52 104.05194885703216" height="104.05194885703216" width="395.52"><g id="textblocktransform"><svg viewBox="0 0 395.52 104.05194885703216" height="104.05194885703216" width="395.52" id="textblock"><g><svg viewBox="0 0 395.52 104.05194885703216" height="104.05194885703216" width="395.52"><g transform="matrix(1,0,0,1,0,0)"><svg width="395.52" viewBox="2.44 -23.88 126.02000000000001 33.16" height="104.05194885703216" data-palette-color="#8789fe"><path d="M6.35-13.53L6.35-13.53Q6.45-19.97 11.23-20.02L11.23-20.02Q16.02-19.92 16.06-13.53L16.06-13.53Q15.97-6.88 11.23-6.84L11.23-6.84Q6.4-6.93 6.35-13.53ZM11.28-21.24L11.28-21.24Q6.88-21.24 4.3-18.41L4.3-18.41Q2.44-16.31 2.44-13.48L2.44-13.48Q2.44-9.77 6.05-7.32L6.05-7.32Q6.4-7.08 6.74-6.88L6.74-6.88Q3.61-6.88 2.83-4.2L2.83-4.2Q2.69-3.56 2.69-2.93L2.69-2.93Q2.73-0.34 4.79 0.93L4.79 0.93Q3.17 2.64 3.17 4.39L3.17 4.39Q3.17 7.08 6.35 8.4L6.35 8.4Q8.35 9.28 11.28 9.28L11.28 9.28Q18.7 9.28 21.09 5.66L21.09 5.66Q21.88 4.44 21.88 3.08L21.88 3.08Q21.88-1.12 17.04-1.76L17.04-1.76Q16.41-1.86 15.72-1.86L15.72-1.86 6.84-2.05Q4.59-2.2 4.54-4L4.54-4Q4.54-5.27 6.15-5.62L6.15-5.62Q6.49-5.66 6.88-5.66L6.88-5.66 11.18-5.62Q15.53-5.62 18.12-8.54L18.12-8.54Q19.97-10.64 19.97-13.53L19.97-13.53Q19.92-17.19 17.14-19.38L17.14-19.38Q17.58-20.95 18.8-21.24L18.8-21.24Q18.99-21.29 19.19-21.29L19.19-21.29Q19.87-21.29 20.65-20.56L20.65-20.56Q21.19-20.07 21.63-20.07L21.63-20.07Q22.85-20.36 23.05-21.63L23.05-21.63Q23.05-23.14 21.63-23.68L21.63-23.68Q21.09-23.88 20.56-23.88L20.56-23.88Q18.26-23.88 16.85-21.83L16.85-21.83Q16.31-21.04 16.02-20.12L16.02-20.12Q13.82-21.24 11.28-21.24ZM11.28 8.01L11.28 8.01Q6.45 8.01 5.18 5.47L5.18 5.47Q4.83 4.79 4.83 4.1L4.83 4.1Q4.88 2.78 6.01 1.46L6.01 1.46Q6.98 1.66 7.62 1.66L7.62 1.66 15.14 1.76Q18.8 1.81 19.38 3.42L19.38 3.42Q19.53 3.81 19.53 4.39L19.53 4.39Q19.53 6.54 15.53 7.52L15.53 7.52Q13.57 8.01 11.28 8.01ZM42.58 0.49L42.58 0.49Q46.34 0.49 46.73-4.05L46.73-4.05Q46.77-4.35 46.77-4.59L46.77-4.59 45.51-4.64Q45.16-1.07 43.6-1.03L43.6-1.03Q42.33-1.12 42.28-3.56L42.28-3.56 42.28-13.87Q42.28-20.85 35.3-21.24L35.3-21.24Q34.86-21.24 34.42-21.24L34.42-21.24Q28.95-21.24 27.1-18.7L27.1-18.7Q26.51-17.87 26.51-17.04L26.51-17.04Q26.51-15.53 27.93-15.28L27.93-15.28Q28.17-15.23 28.42-15.23L28.42-15.23Q29.54-15.23 30.08-16.65L30.08-16.65Q30.76-18.46 31-18.8L31-18.8Q31.93-20.02 33.88-20.02L33.88-20.02Q38.47-19.73 38.62-14.99L38.62-14.99 38.62-11.91Q27.15-11.91 25.49-7.13L25.49-7.13Q25.19-6.2 25.19-5.13L25.19-5.13Q25.19-1.42 28.46-0.05L28.46-0.05Q29.78 0.49 31.25 0.49L31.25 0.49Q34.81 0.49 37.25-1.95L37.25-1.95Q38.13-2.88 38.57-3.91L38.57-3.91Q39.16 0.44 42.58 0.49ZM32.86-1.46L32.86-1.46Q29.88-1.46 29.2-4.44L29.2-4.44Q29.05-5.13 29.05-5.96L29.05-5.96Q29.05-9.23 32.81-10.11L32.81-10.11Q34.81-10.55 38.62-10.6L38.62-10.6 38.62-6.69Q37.89-3.32 35.06-1.95L35.06-1.95Q33.93-1.46 32.86-1.46ZM58-1.22L58-1.22 55.81-1.22 55.81-11.77Q55.95-16.06 58.78-18.16L58.78-18.16Q60.1-19.14 61.42-19.14L61.42-19.14Q63.86-19.14 64.79-16.46L64.79-16.46Q65.18-15.28 65.18-13.82L65.18-13.82 65.18-4.15Q65.18-1.9 64.11-1.46L64.11-1.46Q63.42-1.22 61.76-1.22L61.76-1.22 61.76 0 72.26 0Q72.26-1.07 71.53-1.17L71.53-1.17Q71.33-1.22 71.04-1.22L71.04-1.22 68.84-1.22 68.84-13.33 68.84-13.72Q69.62-17.29 72.31-18.7L72.31-18.7Q73.33-19.19 74.26-19.19L74.26-19.19Q76.75-19.19 77.78-16.6L77.78-16.6Q78.27-15.38 78.27-13.82L78.27-13.82 78.27-4.15Q78.27-1.9 77.19-1.46L77.19-1.46Q76.51-1.22 74.85-1.22L74.85-1.22 74.85 0 85.64 0Q85.64-1.07 84.91-1.17L84.91-1.17Q84.71-1.22 84.42-1.22L84.42-1.22 81.93-1.22 81.93-13.33Q81.93-18.36 78.66-20.36L78.66-20.36Q77.19-21.24 75.48-21.24L75.48-21.24Q71.77-21.24 69.53-17.77L69.53-17.77Q68.94-16.89 68.55-15.92L68.55-15.92Q67.67-19.78 64.69-20.9L64.69-20.9Q63.81-21.24 62.89-21.24L62.89-21.24Q59.37-21.24 57.08-18.26L57.08-18.26Q56.25-17.19 55.76-15.87L55.76-15.87 55.56-20.75 48.48-20.75 48.48-19.53 52.14-19.53 52.14-4.15Q52.14-1.9 50.87-1.46L50.87-1.46Q50.14-1.22 48.48-1.22L48.48-1.22 48.48 0 59.22 0Q59.22-1.03 58.49-1.17L58.49-1.17Q58.25-1.22 58-1.22ZM99.02-20.02L99.02-20.02Q102.43-20.02 103.56-17.14L103.56-17.14Q103.95-16.21 103.95-15.14L103.95-15.14Q103.95-12.7 101.6-12.16L101.6-12.16Q100.38-11.91 98.14-11.96L98.14-11.96 92.96-12.11Q93.21-17.72 96.62-19.43L96.62-19.43Q97.75-20.02 99.02-20.02ZM107.51-4.69L107.51-4.69 106.29-5.13Q104.58-1.42 100.77-0.93L100.77-0.93Q100.29-0.88 99.85-0.88L99.85-0.88Q94.72-0.88 93.4-6.98L93.4-6.98Q93.01-8.69 92.96-10.74L92.96-10.74 98.82-10.64Q104.78-10.55 106.49-11.77L106.49-11.77Q107.81-12.74 107.81-14.55L107.81-14.55Q107.81-17.87 104.44-19.82L104.44-19.82Q102.04-21.24 98.92-21.24L98.92-21.24Q92.81-21.24 90.18-16.16L90.18-16.16Q88.81-13.53 88.81-10.21L88.81-10.21Q88.81-4.15 93.16-1.22L93.16-1.22Q95.74 0.49 99.06 0.49L99.06 0.49Q104.34 0.49 106.83-3.32L106.83-3.32Q107.22-4 107.51-4.69ZM121.91-1.22L121.91-1.22 118.4-1.22 118.4-10.94Q118.4-15.38 121.13-18.07L121.13-18.07Q122.21-19.09 122.94-19.14L122.94-19.14Q123.77-19.14 124.45-17.92L124.45-17.92Q125.23-16.55 125.92-16.36L125.92-16.36Q126.21-16.26 126.5-16.26L126.5-16.26Q127.97-16.26 128.36-17.68L128.36-17.68Q128.46-17.97 128.46-18.26L128.46-18.26Q128.46-20.46 126.21-20.95L126.21-20.95Q125.72-21.04 125.28-21.04L125.28-21.04Q122.35-21.04 120.06-18.55L120.06-18.55Q118.98-17.38 118.35-15.92L118.35-15.92 118.15-20.75 111.07-20.75 111.07-19.53 114.74-19.53 114.74-4.15Q114.74-1.9 113.47-1.46L113.47-1.46Q112.73-1.22 111.07-1.22L111.07-1.22 111.07 0 123.13 0Q123.13-1.07 122.4-1.17L122.4-1.17Q122.21-1.22 121.91-1.22Z" opacity="1" transform="matrix(1,0,0,1,0,0)" fill="#8789fe" class="wordmark-text-0" data-fill-palette-color="primary" id="text-0"></path></svg></g></svg></g></svg></g></svg></g><g><svg viewBox="0 0 244.43135999999998 243.7528296450123" height="243.7528296450123" width="244.43135999999998"><g><svg xmlns="http://www.w3.org/2000/svg" xmlns:xlink="http://www.w3.org/1999/xlink" version="1.1" x="0" y="0" viewBox="5.958478590560721 6.08 88.08552140943928 87.84100000223842" enable-background="new 0 0 100 100" xml:space="preserve" height="243.7528296450123" width="244.43135999999998" class="icon-icon-0" data-fill-palette-color="accent" id="icon-0"><path d="M87.921 64.017C86.067 62.387 70.565 56.609 62.683 53.908 65.695 50.182 67.654 45.62 68.467 42.47 69.647 41.3 70.51 39.14 70.585 37.047 70.649 35.246 70.12 33.685 69.084 32.579 69.09 32.043 72.401 25.032 69.42 17.063 66.111 8.218 59.389 6.08 55.611 6.08 50.977 6.08 46.839 8.72 44.885 10.198 43.896 9.263 42.276 8.133 40.232 8.133 36.939 8.133 33.249 10.244 30.73 15.831 27.264 23.522 30.164 30.558 31.035 33.024 30.108 34.011 29.61 35.33 29.615 36.838 29.621 38.917 30.619 41.274 31.964 42.525 32.516 44.634 34.072 49.586 37.372 53.908 21.364 59.934 12.858 63.371 12.081 64.128 10.273 65.888 7.227 79.773 6.001 84.801A1.512 1.512 0 0 0 7.469 86.669H19.698L21.17 92.764A1.51 1.51 0 0 0 22.638 93.921H77.87A1.51 1.51 0 0 0 79.338 92.765L80.81 86.669H92.533C93.368 86.669 94.044 85.992 94.044 85.158 94.044 84.976 89.842 65.705 87.921 64.017M34.775 41.32A1.5 1.5 0 0 0 34.159 40.426C33.555 40.013 32.635 38.368 32.635 36.829 32.635 34.81 33.939 34.763 33.939 34.763 34.246 34.735 36.627 29.866 37.478 27.01 38.215 24.536 38.527 22.649 38.653 21.371 40.764 23.115 43.687 25.139 50.547 25.091 57.054 25.045 60.823 20.37 61.578 19.697 64.184 23.421 66.001 34.682 66.058 34.763 66.104 34.83 67.655 34.826 67.565 36.938 67.492 38.666 66.678 40.098 66.234 40.415A1.5 1.5 0 0 0 65.638 41.312C64.924 44.462 60.887 57.841 50.02 57.841 38.942 57.841 35.193 43.058 34.775 41.32M76.681 90.899H23.826L19.722 72.05H80.785z" fill="#8789fe" data-fill-palette-color="accent"></path></svg></g></svg></g></svg></g><defs></defs></svg><rect width="395.52" height="145.08181545283796" fill="none" stroke="none" visibility="hidden"></rect></g></svg></g></svg>